<?xml version="1.0" encoding="UTF-8"?>
<svg width="34px" height="50px" viewBox="0 0 34 50" version="1.1" xmlns="http://www.w3.org/2000/svg"
     xmlns:xlink="http://www.w3.org/1999/xlink">
    <g id="Main" stroke="none" stroke-width="1" fill="none" fill-rule="evenodd">
        <g id="Map-HD+" transform="translate(-784.000000, -403.000000)">
            <rect fill="" x="0" y="0" width="1600" height="830"></rect>
            <g id="Group-3" transform="translate(784.000000, 403.000000)">
                <rect id="Rectangle-2" fill="#ffdf03" fill-rule="nonzero" x="7.28571429" y="8.53658537"
                      width="18.2142857" height="17.0731707"></rect>
                <path d="M17,50 C17,50 0,27.1649831 0,17.5 C0,7.83501688 7.61115925,0 17,0 C26.3888407,0 34,7.83501688 34,17.5 C34,27.1649831 17,50 17,50 Z M17,22.7941176 C20.3137085,22.7941176 23,20.0288176 23,16.6176471 C23,13.2064765 20.3137085,10.4411765 17,10.4411765 C13.6862915,10.4411765 11,13.2064765 11,16.6176471 C11,20.0288176 13.6862915,22.7941176 17,22.7941176 Z"
                      id="icon_pin" fill="#7162f7"></path>
            </g>
        </g>
    </g>
</svg>
